<mxfile host="app.diagrams.net" modified="2024-02-26T05:56:06.140Z" agent="Mozilla/5.0 (Windows NT 10.0; Win64; x64) AppleWebKit/537.36 (KHTML, like Gecko) Chrome/121.0.0.0 Safari/537.36" etag="C883H4V7EY0HYwNzr91g" version="23.1.6" type="github">
  <diagram name="第 1 页" id="WXCXulmEjgPksxpKLbFu">
    <mxGraphModel dx="1434" dy="756" grid="1" gridSize="10" guides="1" tooltips="1" connect="1" arrows="1" fold="1" page="1" pageScale="1" pageWidth="827" pageHeight="1169" math="0" shadow="0">
      <root>
        <mxCell id="0" />
        <mxCell id="1" parent="0" />
        <mxCell id="ULw7bn_nJobk8OUZ3yMw-6" value="" style="edgeStyle=orthogonalEdgeStyle;rounded=0;orthogonalLoop=1;jettySize=auto;html=1;" edge="1" parent="1" source="ULw7bn_nJobk8OUZ3yMw-1" target="ULw7bn_nJobk8OUZ3yMw-5">
          <mxGeometry relative="1" as="geometry" />
        </mxCell>
        <mxCell id="ULw7bn_nJobk8OUZ3yMw-1" value="sp.tagenyoto.com:554" style="rounded=1;whiteSpace=wrap;html=1;" vertex="1" parent="1">
          <mxGeometry x="330" y="360" width="140" height="60" as="geometry" />
        </mxCell>
        <mxCell id="ULw7bn_nJobk8OUZ3yMw-4" value="" style="edgeStyle=orthogonalEdgeStyle;rounded=0;orthogonalLoop=1;jettySize=auto;html=1;" edge="1" parent="1" source="ULw7bn_nJobk8OUZ3yMw-2" target="ULw7bn_nJobk8OUZ3yMw-3">
          <mxGeometry relative="1" as="geometry" />
        </mxCell>
        <mxCell id="ULw7bn_nJobk8OUZ3yMw-2" value="sp.tagenyoto.com:554" style="rounded=1;whiteSpace=wrap;html=1;" vertex="1" parent="1">
          <mxGeometry x="330" y="260" width="140" height="60" as="geometry" />
        </mxCell>
        <mxCell id="ULw7bn_nJobk8OUZ3yMw-3" value="192.168.1.120:554" style="whiteSpace=wrap;html=1;rounded=1;" vertex="1" parent="1">
          <mxGeometry x="550" y="260" width="120" height="60" as="geometry" />
        </mxCell>
        <mxCell id="ULw7bn_nJobk8OUZ3yMw-5" value="192.168.1.130:1554" style="whiteSpace=wrap;html=1;rounded=1;" vertex="1" parent="1">
          <mxGeometry x="550" y="360" width="120" height="60" as="geometry" />
        </mxCell>
      </root>
    </mxGraphModel>
  </diagram>
</mxfile>
